<svg xmlns="http://www.w3.org/2000/svg" width="81" height="111.372" id="google-docs">
  <path fill="#4285f4" d="M50.623 0H7.591A7.786 7.786 0 0 0 0 7.6v96.182a7.786 7.786 0 0 0 7.6 7.6h65.8a7.786 7.786 0 0 0 7.6-7.6v-73.4L63.284 17.716Z"></path>
  <path fill="#f1f1f1" d="M20.247 80.996h40.5v-5.061h-40.5v5.061Zm0 10.126h30.372v-5.061H20.247Zm0-35.437v5.061h40.5v-5.062Zm0 15.186h40.5V65.81h-40.5v5.061Z"></path>
  <path fill="#a1c2fa" d="M50.623 0v22.781a7.782 7.782 0 0 0 7.591 7.591h22.781Z"></path>
</svg>
